<?xml version="1.0" encoding="UTF-8"?>
<svg version="1.1" xmlns="http://www.w3.org/2000/svg" width="1024" height="1024">
<path d="M0 0 C337.92 0 675.84 0 1024 0 C1024 337.92 1024 675.84 1024 1024 C686.08 1024 348.16 1024 0 1024 C0 686.08 0 348.16 0 0 Z " fill="#FEFEFE" transform="translate(0,0)"/>
<path d="M0 0 C0.74156342 -0.00014603 1.48312683 -0.00029205 2.24716187 -0.0004425 C4.70370385 0.00025539 7.16017045 0.00804206 9.61669922 0.01586914 C11.31777912 0.01773376 13.01885956 0.01915745 14.71994019 0.02015686 C19.20145139 0.02397861 23.68293029 0.03380599 28.16442871 0.04486084 C32.73575402 0.05508231 37.30708453 0.05965606 41.87841797 0.06469727 C50.85109071 0.07542855 59.82373098 0.09302259 68.79638672 0.11352539 C68.79638672 9.35352539 68.79638672 18.59352539 68.79638672 28.11352539 C49.32638672 28.11352539 29.85638672 28.11352539 9.79638672 28.11352539 C9.79638672 82.23352539 9.79638672 136.35352539 9.79638672 192.11352539 C47.38666189 191.99494678 47.38666189 191.99494678 84.97680664 191.84326172 C92.28137207 191.82971191 92.28137207 191.82971191 95.71138 191.82719421 C98.08415927 191.8226165 100.45693197 191.8121261 102.82966614 191.79679871 C126.99889847 191.64860535 147.06502954 194.75657287 166.79638672 210.11352539 C169.47079195 208.8037716 172.06206729 207.40961538 174.63232422 205.90649414 C198.79658542 191.97955936 198.79658542 191.97955936 211.79510498 191.99327087 C213.30215059 191.99120463 213.30215059 191.99120463 214.83964157 191.98909664 C215.94008427 191.99269475 217.04052696 191.99629286 218.17431641 192 C219.35434864 191.99987947 220.53438087 191.99975893 221.75017166 191.99963474 C225.57288747 192.0003816 229.39555462 192.00799956 233.21826172 192.01586914 C235.5771482 192.01733926 237.936035 192.01835954 240.29492188 192.0189209 C249.04541513 192.02416564 257.7959014 192.03812681 266.54638672 192.05102539 C295.87513672 192.08196289 295.87513672 192.08196289 325.79638672 192.11352539 C325.79638672 137.99352539 325.79638672 83.87352539 325.79638672 28.11352539 C306.32638672 28.11352539 286.85638672 28.11352539 266.79638672 28.11352539 C266.79638672 18.87352539 266.79638672 9.63352539 266.79638672 0.11352539 C276.47153953 0.04568451 286.14653374 -0.00932824 295.8218708 -0.04191113 C300.31476826 -0.05755114 304.80749421 -0.07875894 309.30029297 -0.11279297 C313.63803666 -0.14544589 317.97561562 -0.16334014 322.31347275 -0.17110634 C323.96644559 -0.17663921 325.61940966 -0.18744362 327.27231216 -0.20366478 C329.59189418 -0.22551832 331.91079996 -0.22843829 334.23046875 -0.22705078 C335.54951202 -0.23371262 336.8685553 -0.24037445 338.22756958 -0.24723816 C342.72194941 0.2070884 346.08798758 1.55527059 349.44091797 4.61352539 C353.59987097 9.95478945 353.94054227 13.80170258 353.91664124 20.37077332 C353.91792287 21.64868656 353.91792287 21.64868656 353.9192304 22.95241624 C353.92088232 25.81758249 353.9153685 28.68269067 353.90991211 31.54785156 C353.90963015 33.59752908 353.90978814 35.6472067 353.91035461 37.69688416 C353.91064225 43.27091771 353.90475101 48.84492986 353.89778066 54.41895843 C353.89154145 60.24059297 353.89094287 66.06222798 353.88975525 71.88386536 C353.88664361 82.91230241 353.87843247 93.94072959 353.86840576 104.96916229 C353.85723944 117.52280064 353.85173286 130.07643945 353.84671032 142.63008153 C353.83624973 168.45790164 353.81865351 194.28571296 353.79638672 220.11352539 C353.07654004 220.11407016 352.35669336 220.11461493 351.61503315 220.1151762 C334.05202784 220.1301818 316.4893029 220.17278073 298.92644215 220.24561596 C290.43294755 220.28018281 281.93961386 220.30561053 273.44604492 220.30908203 C266.03796956 220.31213354 258.63018135 220.3327824 251.22221678 220.37404996 C247.30426092 220.39527479 243.38671221 220.40803532 239.4686985 220.39967918 C235.77073942 220.39207154 232.07360073 220.40822928 228.37579155 220.44158554 C226.39234348 220.45358741 224.40879342 220.4413181 222.425354 220.42796326 C207.85559125 220.61163479 195.01808281 226.71771175 183.57763672 235.56274414 C177.47544475 240.2399387 172.63677793 243.52513019 164.70263672 242.86743164 C159.2984001 241.46552617 155.19583 238.45058459 150.79638672 235.11352539 C140.84489752 227.65392767 129.70777775 221.03468174 116.96246338 220.95530701 C115.770569 220.94551819 114.57867462 220.93572937 113.35066223 220.92564392 C112.0465892 220.91988846 110.74251617 220.914133 109.39892578 220.90820312 C108.00918794 220.89862096 106.61945299 220.88861067 105.22972107 220.87820435 C101.45943555 220.85118591 97.68913756 220.83015979 93.91880894 220.81020236 C89.97764885 220.78832391 86.0365271 220.76094432 82.09539795 220.73414612 C74.63340783 220.68424437 67.17139641 220.6392962 59.70936465 220.59612375 C51.21364042 220.54672986 42.71795465 220.49181971 34.22226763 220.43644416 C16.74700955 220.32266277 -0.72828424 220.21581536 -18.20361328 220.11352539 C-18.29701949 192.96696831 -18.36757435 165.82043529 -18.41086197 138.67374992 C-18.43149463 126.06931057 -18.45962882 113.46497101 -18.50537109 100.8605957 C-18.54521713 89.87571113 -18.57104097 78.89089882 -18.57996726 67.90594399 C-18.58518575 62.08848953 -18.59746601 56.27124185 -18.62653351 50.45385361 C-18.65366714 44.97918304 -18.66206233 39.50480459 -18.65604401 34.03007317 C-18.65714515 32.02010575 -18.66511111 30.01012865 -18.68043518 28.00021935 C-18.70033084 25.25628711 -18.69555395 22.51345839 -18.68463135 19.76950073 C-18.69628271 18.97376959 -18.70793408 18.17803844 -18.71993852 17.35819423 C-18.6639715 12.15813909 -17.60184132 9.25944986 -14.20361328 5.11352539 C-9.2762983 0.77279552 -6.4208748 -0.03281584 0 0 Z " fill="#91C64E" transform="translate(344.20361328125,442.886474609375)"/>
<path d="M0 0 C54.45 0 108.9 0 165 0 C166.98 4.62 168.96 9.24 171 14 C174.3893417 18.71745011 174.3893417 18.71745011 179 22 C181.24490262 22.11777296 183.49333885 22.1698645 185.74121094 22.19287109 C186.43412231 22.20104858 187.12703369 22.20922607 187.84094238 22.21765137 C190.13874447 22.24250397 192.43648469 22.25902252 194.734375 22.2734375 C195.51939644 22.27876118 196.30441788 22.28408485 197.11322784 22.28956985 C201.26981124 22.31630319 205.4263646 22.33567587 209.58300781 22.35009766 C213.87167023 22.36672981 218.15956183 22.41149405 222.4479332 22.4624691 C225.74913388 22.49616763 229.05015236 22.50767795 232.35150909 22.51332474 C233.93194711 22.52003204 235.51237335 22.53524076 237.09264374 22.55921555 C239.30946608 22.5909237 241.52422031 22.5908967 243.74121094 22.58349609 C245.63078522 22.59562637 245.63078522 22.59562637 247.55853271 22.60800171 C252.14405196 21.79788111 253.71986106 20.26354674 257 17 C258.88263183 14.10774877 258.88263183 14.10774877 260.25 11 C260.72953125 9.989375 261.2090625 8.97875 261.703125 7.9375 C262.86023486 5.31657646 263.935971 2.6600725 265 0 C319.45 0 373.9 0 430 0 C430 15.111112 427.8150555 27.18440044 417.3125 38.3125 C405.65354313 49.31607172 391.84572025 51.46055185 376.32546997 51.38768005 C374.86505789 51.39186019 373.40464906 51.39734142 371.94424617 51.40399987 C367.95797427 51.41838411 363.97191036 51.41423189 359.98562741 51.40683305 C355.67603727 51.40208619 351.36649114 51.41462462 347.05691528 51.42485046 C338.62447356 51.44201417 330.19210644 51.44288352 321.7596518 51.43763756 C314.90313375 51.43359007 308.04663769 51.43504628 301.1901207 51.44038582 C299.72426956 51.44150845 299.72426956 51.44150845 298.22880527 51.44265376 C296.24331864 51.4441853 294.25783202 51.44572365 292.27234541 51.44726873 C273.66829246 51.46098501 255.0642816 51.45556223 236.46022962 51.44408352 C219.45623831 51.43415221 202.45235584 51.4470916 185.44838132 51.47101771 C167.97005718 51.49542515 150.4917837 51.50501252 133.01344287 51.49836498 C123.20813957 51.4948764 113.40291993 51.49708097 103.59762955 51.51461601 C95.2506268 51.52935856 86.90376666 51.52994662 78.55676664 51.5125451 C74.30193051 51.5040496 70.04734891 51.50184989 65.79252625 51.51719666 C61.89019369 51.53109725 57.98833243 51.52621239 54.08602677 51.50695742 C52.68169345 51.50321347 51.27732189 51.50607265 49.87302281 51.51656907 C35.5703163 51.6157905 23.77803168 48.7071375 13 39 C1.89931507 27.52088263 0 15.77549742 0 0 Z " fill="#4DAF50" transform="translate(297,682)"/>
<path d="M0 0 C1.22240387 -0.00997513 2.44480774 -0.01995026 3.70425415 -0.03022766 C5.05603014 -0.03112343 6.40780631 -0.03178702 7.75958252 -0.03224182 C9.18560215 -0.03986485 10.61161767 -0.04829259 12.03762817 -0.0574646 C15.90971374 -0.07940553 19.78172034 -0.08820821 23.65386105 -0.09329104 C26.07480491 -0.09693583 28.49572813 -0.10317661 30.91666412 -0.11029243 C39.36789355 -0.13478787 47.8190616 -0.14783852 56.27032471 -0.15138245 C64.13887071 -0.15501532 72.00702608 -0.18489237 79.87545276 -0.22678703 C86.63739946 -0.26152366 93.39921696 -0.27693149 100.16125226 -0.27762848 C104.19696697 -0.27842031 108.23228393 -0.28711475 112.26790619 -0.31562614 C116.06676011 -0.34186426 119.86488822 -0.34398071 123.66379166 -0.3279705 C125.05370038 -0.32616039 126.44365138 -0.33280734 127.83346939 -0.34878922 C135.66148196 -0.43327659 142.09888233 -0.33351631 148.03009033 5.27415466 C150.16768472 8.48054625 150.28398243 9.31828778 150.304245 13.00508118 C150.31422012 13.97802124 150.32419525 14.9509613 150.33447266 15.9533844 C150.33513733 17.01942902 150.335802 18.08547363 150.33648682 19.18382263 C150.34481033 20.30764343 150.35313385 21.43146423 150.36170959 22.58934021 C150.38586187 26.31504247 150.39458801 30.04056985 150.40118408 33.76634216 C150.4101461 36.35082554 150.41926786 38.93530837 150.42854309 41.51979065 C150.44504966 46.9419974 150.45276946 52.36413348 150.45562744 57.78636169 C150.45926253 64.05028463 150.48915514 70.31371753 150.53103203 76.57749069 C150.56992232 82.60619481 150.58122028 88.63462741 150.58235359 94.66347122 C150.58656589 97.22716556 150.59904028 99.79085994 150.61987114 102.35447311 C150.64667678 105.93865065 150.64199107 109.5214716 150.62945557 113.10569763 C150.651707 114.69869186 150.651707 114.69869186 150.67440796 116.3238678 C150.6027659 123.5043307 150.6027659 123.5043307 147.70137024 127.40455627 C144.25431868 129.81710841 142.24739279 130.36867265 138.03009033 130.27415466 C135.25352767 129.19327056 132.91651998 127.64379675 130.46759033 125.96165466 C129.76851562 125.50307068 129.06944092 125.04448669 128.34918213 124.57200623 C123.36670821 121.27331158 118.49363496 117.81582349 113.66143799 114.30149841 C107.61426772 109.91700577 101.39429109 105.79997333 95.15631104 101.69309998 C90.5892854 98.67897041 86.07611112 95.61688763 81.63555908 92.41868591 C80.77664063 91.80678406 79.91772217 91.1948822 79.03277588 90.56443787 C77.39710907 89.39437205 75.77168381 88.20981902 74.15826416 87.00926208 C70.16415701 83.95148645 70.16415701 83.95148645 65.40899658 83.66477966 C64.62395752 84.19587341 63.83891846 84.72696716 63.03009033 85.27415466 C62.01817627 85.89806091 61.00626221 86.52196716 59.96368408 87.16477966 C58.79472642 87.94588741 57.62959575 88.73274154 56.46759033 89.52415466 C55.82410645 89.9574408 55.18062256 90.39072693 54.51763916 90.83714294 C48.17683323 95.12829703 41.92262341 99.54342877 35.66021729 103.94773865 C27.8964197 109.39592686 20.03850195 114.68897888 12.11114502 119.89573669 C10.06323009 121.25220404 8.03381217 122.63300803 6.00665283 124.02024841 C4.7647057 124.85524146 3.52253126 125.68989655 2.28009033 126.52415466 C1.21274658 127.25118591 0.14540283 127.97821716 -0.95428467 128.72727966 C-4.31759725 130.45250218 -6.24407286 130.74445664 -9.96990967 130.27415466 C-12.66981628 128.47421692 -14.51179617 127.19038166 -15.96990967 124.27415466 C-16.07477703 122.75708194 -16.11805736 121.23554643 -16.13053894 119.71490479 C-16.14058456 118.75464386 -16.15063019 117.79438293 -16.16098022 116.80502319 C-16.16681122 115.74787613 -16.17264221 114.69072906 -16.1786499 113.60154724 C-16.19332558 111.93548431 -16.19332558 111.93548431 -16.20829773 110.23576355 C-16.23830017 106.54674995 -16.25965141 102.85777276 -16.27850342 99.16868591 C-16.28507524 97.91051245 -16.29164707 96.65233898 -16.29841805 95.35603905 C-16.32431591 90.06742596 -16.34780452 84.77881826 -16.36291409 79.49016285 C-16.38480419 71.91734566 -16.4267346 64.34523901 -16.49635166 56.77270585 C-16.54936992 50.80228056 -16.569405 44.83201162 -16.57811165 38.86134911 C-16.58667861 36.32439858 -16.60552688 33.78746113 -16.63485527 31.25066566 C-16.67371671 27.69779261 -16.67481009 24.14676947 -16.66693115 20.59373474 C-16.68693176 19.54670883 -16.70693237 18.49968292 -16.72753906 17.42092896 C-16.66774634 11.41053305 -15.86428845 7.98712238 -11.64853001 3.60276318 C-7.79663617 0.55403392 -4.89908524 0.0214415 0 0 Z " fill="#90C74D" transform="translate(444.96990966796875,425.72584533691406)"/>
<path d="M0 0 C5.54969709 0.80560119 8.02439496 3.67501177 11.875 7.5625 C12.54789063 8.21089844 13.22078125 8.85929687 13.9140625 9.52734375 C17.12848269 12.66109317 20.16153029 15.88342794 23.08984375 19.28515625 C26.98109227 23.75768301 31.14719912 27.91033062 35.375 32.0625 C40.15380802 36.7558195 44.74655094 41.50241978 49.11523438 46.58007812 C52.20894006 50.06521827 55.54936478 53.30057426 58.875 56.5625 C62.72954407 60.34320223 66.53440868 64.1051799 70.03125 68.22265625 C73.25928697 71.97131483 76.705893 75.45523624 80.21875 78.93359375 C80.79560547 79.50494049 81.37246094 80.07628723 81.96679688 80.66494751 C84.37254214 83.04308843 86.78174773 85.4176455 89.19580078 87.78735352 C107.07415669 105.35912676 107.07415669 105.35912676 108.6875 111.8125 C107.55527214 115.64465582 105.24006408 117.60765455 101.875 119.5625 C98.88143438 120.04613015 96.46400029 120.24069312 93.48045349 120.19741821 C92.23461372 120.20911814 92.23461372 120.20911814 90.96360546 120.22105443 C88.18809136 120.24095508 85.41395135 120.22521788 82.63842773 120.20947266 C80.64567262 120.21624959 78.65292376 120.22515314 76.66018677 120.23602295 C71.25319772 120.25881224 65.84668581 120.24998169 60.43968844 120.23412752 C54.78188717 120.22146849 49.12412673 120.23320849 43.46632385 120.24105835 C33.96616276 120.25015413 24.46619604 120.23816799 14.96606445 120.21435547 C3.98004033 120.18713663 -7.00551995 120.19596434 -17.99153286 120.2234875 C-27.4226922 120.24617016 -36.85371184 120.24938297 -46.28488964 120.23629415 C-51.91832677 120.22849606 -57.5515458 120.22746819 -63.18496895 120.24397659 C-68.48011008 120.25840997 -73.77465247 120.24841997 -79.06972885 120.21950531 C-81.01398028 120.21288883 -82.95828203 120.21480173 -84.9025135 120.22581863 C-87.55483701 120.2394634 -90.20523658 120.22237243 -92.85743713 120.19741821 C-94.0142455 120.21414863 -94.0142455 120.21414863 -95.19442374 120.23121703 C-99.15308644 120.15886338 -100.94280507 119.70646203 -104.08703518 117.22203636 C-106.125 114.5625 -106.125 114.5625 -107 111.375 C-105.60038872 105.27669371 -101.46452705 101.85356154 -97.125 97.5625 C-95.67139443 96.10855321 -94.21831158 94.65408373 -92.765625 93.19921875 C-90.41323202 90.84464449 -88.0575949 88.49421378 -85.68603516 86.15893555 C-81.57304673 82.0953457 -77.67105767 77.94643444 -73.90283203 73.56298828 C-69.97023277 69.13786904 -65.66315664 65.06419588 -61.44140625 60.91796875 C-58.0561829 57.56947477 -54.76054742 54.20589331 -51.65625 50.59375 C-47.00553801 45.18829389 -41.87810504 40.269412 -36.796875 35.2734375 C-32.61174563 31.13101353 -28.62026479 26.91195323 -24.78222656 22.44677734 C-22.15256029 19.45682975 -19.33641604 16.66730909 -16.5 13.875 C-15.9534375 13.33294922 -15.406875 12.79089844 -14.84375 12.23242188 C-13.77538916 11.17300664 -12.70608981 10.11453681 -11.63574219 9.05712891 C-9.45655157 6.90118111 -7.29069376 4.73199322 -5.125 2.5625 C-3.125 0.5625 -3.125 0.5625 0 0 Z " fill="#4AAF52" transform="translate(511.125,291.4375)"/>
<path d="M0 0 C1.09771477 -0.00021904 1.09771477 -0.00021904 2.21760559 -0.0004425 C4.64168235 0.00025536 7.06568272 0.00804185 9.48974609 0.01586914 C11.16840574 0.01773377 12.84706593 0.01915746 14.52572632 0.02015686 C18.94805397 0.02397851 23.37034888 0.0338058 27.79266357 0.04486084 C32.30366574 0.05508253 36.81467319 0.05965611 41.32568359 0.06469727 C50.17986466 0.07542837 59.03402141 0.09250058 67.88818359 0.11352539 C68.33045916 10.44833205 68.66697582 20.78085625 68.87261486 31.12323284 C68.9713798 35.92753721 69.10497852 40.72532684 69.3215332 45.52587891 C70.68048843 76.45295342 70.68048843 76.45295342 66.12411499 84.05789185 C61.842452 88.52304703 56.89382973 91.01223436 51.16671753 93.1993103 C48.19552949 94.39143867 45.82190628 96.08118324 43.29052734 98.02368164 C42.54174316 98.55195557 41.79295898 99.08022949 41.02148438 99.62451172 C40.29687012 100.13651123 39.57225586 100.64851074 38.82568359 101.17602539 C30.29793513 107.16965582 21.68127797 113.01296306 12.96923828 118.73510742 C10.92132335 120.09157477 8.89190543 121.47237875 6.86474609 122.85961914 C5.62279896 123.69461219 4.38062452 124.52926728 3.13818359 125.36352539 C2.07083984 126.09055664 1.00349609 126.81758789 -0.09619141 127.56665039 C-3.45950398 129.2918729 -5.3859796 129.58382737 -9.11181641 129.11352539 C-11.81172302 127.31358765 -13.65370291 126.02975239 -15.11181641 123.11352539 C-15.21668377 121.59645267 -15.2599641 120.07491716 -15.27244568 118.55427551 C-15.2824913 117.59401459 -15.29253693 116.63375366 -15.30288696 115.64439392 C-15.30871796 114.58724686 -15.31454895 113.53009979 -15.32055664 112.44091797 C-15.33523232 110.77485504 -15.33523232 110.77485504 -15.35020447 109.07513428 C-15.38020691 105.38612068 -15.40155815 101.69714348 -15.42041016 98.00805664 C-15.42698198 96.74988317 -15.43355381 95.49170971 -15.44032478 94.19540977 C-15.46622265 88.90679669 -15.48971126 83.61818899 -15.50482082 78.32953358 C-15.52671092 70.75671638 -15.56864134 63.18460974 -15.6382584 55.61207658 C-15.69127666 49.64165129 -15.71131174 43.67138235 -15.72001839 37.70071983 C-15.72858535 35.16376931 -15.74743362 32.62683185 -15.77676201 30.09003639 C-15.81562345 26.53716334 -15.81671683 22.9861402 -15.80883789 19.43310547 C-15.8288385 18.38607956 -15.84883911 17.33905365 -15.8694458 16.26029968 C-15.80851185 10.13518741 -14.94270091 6.76263736 -10.59512424 2.34447765 C-7.28989463 -0.39843233 -4.09060488 -0.02118792 0 0 Z " fill="#4BB050" transform="translate(444.11181640625,426.886474609375)"/>
<path d="M0 0 C3.22396053 2.4793402 6.18963284 5.06152494 9 8 C8.09970429 9.34444159 7.17911978 10.67531438 6.25 12 C5.48429688 13.11375 5.48429688 13.11375 4.703125 14.25 C4.14109375 14.8275 3.5790625 15.405 3 16 C-1.50357376 16 -1.86228296 15.61792391 -5.0625 12.8125 C-16.64302901 3.44589565 -31.27556684 -0.2687315 -46 1 C-58.22077152 2.74807428 -69.10603333 8.5197062 -78 17 C-82.30120268 15.08835436 -84.199135 12.73448667 -87 9 C-87 8.34 -87 7.68 -87 7 C-84.97366838 5.31088398 -82.9616642 3.76964789 -80.8125 2.25 C-80.18045654 1.80261475 -79.54841309 1.35522949 -78.8972168 0.89428711 C-72.93054534 -3.22001792 -66.76729375 -6.38457907 -60 -9 C-59.13375 -9.33902344 -58.2675 -9.67804687 -57.375 -10.02734375 C-37.87569808 -16.47757015 -16.67925885 -10.83193247 0 0 Z " fill="#53B357" transform="translate(551,569)"/>
<path d="M0 0 C1.44040649 0.00543823 1.44040649 0.00543823 2.90991211 0.01098633 C14.26512892 0.36437828 22.46870004 4.35436206 30.3125 12.6875 C29.01556052 16.57831843 27.60550888 19.16931674 24.3125 21.6875 C21.40687741 21.6875 20.29075796 20.66938164 18.0625 18.8125 C10.50826757 12.97513857 2.54991206 12.89880868 -6.6875 13.6875 C-12.55434752 14.9023047 -17.02073804 18.09020432 -21.6875 21.6875 C-25.50434226 20.13249019 -27.87945732 17.65154505 -30.6875 14.6875 C-29.2722756 11.24946794 -27.72725193 9.70095451 -24.625 7.6875 C-23.91214844 7.213125 -23.19929688 6.73875 -22.46484375 6.25 C-14.88079474 1.98330576 -8.77595036 -0.06544046 0 0 Z " fill="#52B457" transform="translate(511.6875,581.3125)"/>
<path d="M0 0 C3.45211024 2.30140683 4.9826251 4.1448704 6.8125 7.875 C7.67778735 12.29856087 7.17489949 15.16362322 5.125 19.1875 C2.22680219 22.55567583 0.17409162 24.4814014 -4.296875 25.2265625 C-8.45267473 25.4915296 -11.30440435 25.26194361 -14.625 22.625 C-18.69043521 18.26209392 -19.70013797 15.00836534 -19.57421875 9.12890625 C-18.80020058 4.61770941 -15.9337157 2.15555818 -12.3125 -0.5 C-7.92422853 -1.79066808 -4.28345394 -1.51180727 0 0 Z " fill="#4FB158" transform="translate(518.1875,606.125)"/>
<path d="M0 0 C0.66 0.99 1.32 1.98 2 3 C-2.29 7.29 -6.58 11.58 -11 16 C-11.66 15.34 -12.32 14.68 -13 14 C-12.31292969 13.32453125 -11.62585938 12.6490625 -10.91796875 11.953125 C-10.01691406 11.06109375 -9.11585938 10.1690625 -8.1875 9.25 C-6.84751953 7.92742187 -6.84751953 7.92742187 -5.48046875 6.578125 C-3.44787848 4.46551149 -1.68226182 2.39205335 0 0 Z " fill="#53B75D" transform="translate(504,295)"/>
<path d="M0 0 C0.33 0.99 0.66 1.98 1 3 C-1.31 5.31 -3.62 7.62 -6 10 C-6.99 9.67 -7.98 9.34 -9 9 C-6.03 6.03 -3.06 3.06 0 0 Z " fill="#51B75C" transform="translate(427,376)"/>
<path d="M0 0 C0 3.99476331 -1.28869085 5.1421336 -4 8 C-6.75 9.3125 -6.75 9.3125 -9 10 C-8.06409496 8.8944811 -7.12620142 7.79064547 -6.1875 6.6875 C-5.66542969 6.07261719 -5.14335937 5.45773437 -4.60546875 4.82421875 C-3.12827531 3.14575321 -1.59960869 1.56117966 0 0 Z " fill="#62BE6D" transform="translate(442,360)"/>
<path d="M0 0 C-1.28519565 2.86697492 -2.57129254 4.97607712 -5 7 C-5.66 7 -6.32 7 -7 7 C-3.86206897 0 -3.86206897 0 0 0 Z " fill="#95CA57" transform="translate(335,445)"/>
</svg>
