<?xml version="1.0" encoding="UTF-8"?>
<svg version="1.1" xmlns="http://www.w3.org/2000/svg" width="1024" height="1024">
<path d="M0 0 C337.92 0 675.84 0 1024 0 C1024 337.92 1024 675.84 1024 1024 C686.08 1024 348.16 1024 0 1024 C0 686.08 0 348.16 0 0 Z " fill="#FDFEFE" transform="translate(0,0)"/>
<path d="M0 0 C0.33 0 0.66 0 1 0 C1.66000041 30.69001928 -4.46964943 60.13887168 -13.25097656 89.47998047 C-13.88642237 91.61787867 -14.49518597 93.75961339 -15.0859375 95.91015625 C-17.27559668 103.61139344 -20.45811039 110.66726648 -23.9609375 117.83496094 C-25.08136872 120.16954367 -26.15240224 122.52305844 -27.21875 124.8828125 C-38.71287549 150.08293426 -54.18131468 173.17837717 -72.8515625 193.6328125 C-74.75151841 195.72621846 -76.60001721 197.85195674 -78.4375 200 C-108.47382422 234.41662151 -149.77651084 258.00718296 -192 274 C-193.33102724 274.51876711 -194.66180434 275.0381771 -195.9921875 275.55859375 C-202.79692068 278.12838122 -209.71056014 280.07178454 -216.75 281.875 C-217.63341064 282.10292236 -218.51682129 282.33084473 -219.42700195 282.56567383 C-220.66196411 282.8696106 -220.66196411 282.8696106 -221.921875 283.1796875 C-222.66018555 283.36257324 -223.39849609 283.54545898 -224.15917969 283.73388672 C-226 284 -226 284 -228 283 C-227.46221924 282.6282666 -226.92443848 282.2565332 -226.37036133 281.87353516 C-215.71246982 274.4938578 -205.14391256 267.07653907 -195 259 C-194.071875 258.26523437 -193.14375 257.53046875 -192.1875 256.7734375 C-185.17996405 251.13953786 -178.54464273 245.15855589 -172 239 C-171.34128906 238.38382813 -170.68257813 237.76765625 -170.00390625 237.1328125 C-165.73716351 233.0138784 -162.02699598 228.49597131 -158.31640625 223.875 C-156.82504622 222.0240034 -155.31338254 220.18909151 -153.77734375 218.375 C-145.81808148 208.94180027 -139.02774905 198.75891135 -133 188 C-133.68924561 187.95512451 -134.37849121 187.91024902 -135.08862305 187.86401367 C-159.83797207 186.20413501 -179.98515708 183.45320541 -198.140625 164.80078125 C-205.97059834 155.72232791 -218 137.41412628 -218 125 C-213.68525769 125.78763242 -209.48850657 126.92542891 -205.26953125 128.109375 C-204.52023849 128.31806213 -203.77094574 128.52674927 -202.99894714 128.74176025 C-200.60298606 129.40947109 -198.20773059 130.07967398 -195.8125 130.75 C-194.2533023 131.18506463 -192.69405787 131.61996185 -191.13476562 132.0546875 C-188.0162127 132.92432272 -184.89791532 133.79486587 -181.77978516 134.66601562 C-174.18888528 136.78583204 -166.5943126 138.8924495 -159 141 C-162.43552264 139.14570021 -165.87268633 137.29447504 -169.31137085 135.44604492 C-170.56239044 134.77353821 -171.8132246 134.10068645 -173.06387329 133.42749023 C-180.33896332 129.51420121 -187.63463063 125.65115108 -195 121.91015625 C-195.64761795 121.58011093 -196.2952359 121.25006561 -196.96247864 120.91001892 C-200.07434127 119.32466665 -203.1903716 117.74887634 -206.31518555 116.18920898 C-224.90547761 106.74064728 -236.64694752 93.75677456 -243.16040039 73.81640625 C-245.96226722 64.66916598 -247.20240033 55.51167367 -248 46 C-243.75356804 47.30580639 -239.9973933 48.93260927 -236.09765625 51.0546875 C-234.97182129 51.6633667 -233.84598633 52.2720459 -232.68603516 52.89916992 C-232.09558411 53.22114349 -231.50513306 53.54311707 -230.89678955 53.87484741 C-227.75798449 55.5862915 -224.61091357 57.28242793 -221.46484375 58.98046875 C-220.83066528 59.32328384 -220.19648682 59.66609894 -219.54309082 60.01930237 C-213.76856881 63.13646596 -207.95266703 66.17095626 -202.125 69.1875 C-193.95285445 73.42767126 -185.8481448 77.77600939 -177.7800293 82.21069336 C-172.34388551 85.19311277 -166.88674881 88.13142754 -161.40625 91.03125 C-160.74770523 91.38020325 -160.08916046 91.72915649 -159.41065979 92.08868408 C-155.47937239 94.17148364 -155.47937239 94.17148364 -151.54318237 96.24499512 C-138.99696501 102.83492747 -126.74450891 109.64865122 -116 119 C-115.38769531 119.52851563 -114.77539062 120.05703125 -114.14453125 120.6015625 C-106.91646179 127.31688562 -101.21029349 136.13973046 -97 145 C-92.64610583 142.23346308 -88.77622219 139.21043899 -85 135.6875 C-84.44602539 135.1726001 -83.89205078 134.6577002 -83.32128906 134.12719727 C-73.09677612 124.49123822 -63.66364811 114.05525847 -55 103 C-54.20207031 101.99710937 -53.40414062 100.99421875 -52.58203125 99.9609375 C-30.71408132 72.24448322 -14.61028136 40.57486513 -2.86279297 7.37402344 C-1.96116584 4.89314562 -0.99236255 2.44583384 0 0 Z " fill="#0C673F" transform="translate(630,377)"/>
<path d="M0 0 C0.66 0 1.32 0 2 0 C4.70520573 12.96295417 5.4161416 25.4437335 5.28125 38.66943359 C5.24989638 41.76021456 5.24023735 44.85048121 5.234375 47.94140625 C5.17662969 63.51531574 4.44086179 78.4486334 1.20849609 93.70361328 C0.75237254 95.86376393 0.31471356 98.02707636 -0.12109375 100.19140625 C-2.85627648 113.50188072 -6.67825466 126.40482419 -11.8125 139 C-12.32115601 140.25526489 -12.32115601 140.25526489 -12.84008789 141.53588867 C-23.32081959 166.98218652 -37.894315 189.20706014 -57 209 C-57.63808594 209.70125 -58.27617188 210.4025 -58.93359375 211.125 C-87.38857168 241.54457552 -133.5463716 260.56753173 -174.7980957 262.14526367 C-181.7014017 262.18568472 -181.7014017 262.18568472 -185.1105957 262.18530273 C-187.32457074 262.18751205 -189.53806441 262.20578337 -191.75195312 262.22460938 C-193.16406081 262.22753987 -194.57617084 262.22952696 -195.98828125 262.23046875 C-197.26227783 262.23457764 -198.53627441 262.23868652 -199.84887695 262.24291992 C-203 262 -203 262 -206 260 C-204.56672363 259.47998413 -204.56672363 259.47998413 -203.10449219 258.94946289 C-176.66168713 249.4209891 -176.66168713 249.4209891 -151 238 C-150.28328125 237.65050293 -149.5665625 237.30100586 -148.828125 236.94091797 C-126.54464347 225.9644998 -104.59064669 210.97945775 -87.21484375 193.140625 C-85 191 -85 191 -83 191 C-83 190.34 -83 189.68 -83 189 C-80.83658497 186.70137153 -78.57932341 184.5413135 -76.2734375 182.38671875 C-62.26307679 168.92408819 -50.6995038 151.74319108 -41 135 C-40.33097656 133.8562793 -40.33097656 133.8562793 -39.6484375 132.68945312 C-31.30420364 118.31015173 -24.68869263 103.61245618 -19 88 C-18.59620117 86.89430664 -18.19240234 85.78861328 -17.77636719 84.64941406 C-12.13084771 68.97644113 -7.90089833 53.39661392 -5 37 C-4.71600342 35.43378906 -4.71600342 35.43378906 -4.42626953 33.8359375 C-2.40179212 22.60136918 -0.44634866 11.42652571 0 0 Z " fill="#7CBB41" transform="translate(637,404)"/>
<path d="M0 0 C0.77615644 21.20101156 -0.60629876 41.62601005 -14.5625 58.75 C-19.49758867 63.91687365 -25.41996251 67.90909903 -31.32910156 71.87744141 C-32.45750065 72.63553302 -33.5791586 73.40374197 -34.69433594 74.18115234 C-38.77714646 77 -38.77714646 77 -41 77 C-39.23810737 58.67631664 -32.16069051 42.17505726 -22 27 C-34.2392589 36.64938159 -41.40552704 48.08947041 -48 62 C-48.66 62 -49.32 62 -50 62 C-53.99977304 52.60767581 -55.9368334 44.11564037 -52.2265625 34.28515625 C-45.55892817 21.86297127 -32.38749905 13.73690583 -20.1875 7.625 C-19.17751953 7.10550781 -18.16753906 6.58601563 -17.12695312 6.05078125 C-5.28336967 0 -5.28336967 0 0 0 Z " fill="#9BC846" transform="translate(579,421)"/>
<path d="M0 0 C0.33 0 0.66 0 1 0 C0.23545023 11.96915854 -1.04979197 24.74457975 -5.3046875 36.03125 C-6.56295604 39.5939879 -7.25674528 43.30121475 -8 47 C-8.66 46.67 -9.32 46.34 -10 46 C-9.7215625 44.75863281 -9.443125 43.51726562 -9.15625 42.23828125 C-7.89589159 36.56334001 -6.69211083 30.87711986 -5.5 25.1875 C-5.18095703 23.68219727 -5.18095703 23.68219727 -4.85546875 22.14648438 C-3.5441844 15.88369376 -2.41294907 9.61992965 -1.44726562 3.29418945 C-1 1 -1 1 0 0 Z " fill="#A8D14A" transform="translate(635,428)"/>
<path d="M0 0 C0.33 0 0.66 0 1 0 C0.66833517 6.42743559 0.15544757 11.2959217 -3 17 C-3.48552785 18.57520684 -3.94108531 20.15980129 -4.375 21.75 C-5.92072452 27.13958974 -8.06779131 32.20975809 -11 37 C-11.99 37.495 -11.99 37.495 -13 38 C-10.2282119 29.53263441 -7.18980387 21.16959607 -4.140625 12.79882812 C-3.75132812 11.72439453 -3.36203125 10.64996094 -2.9609375 9.54296875 C-2.60821777 8.57383545 -2.25549805 7.60470215 -1.89208984 6.60620117 C-1.14127111 4.41271731 -0.51546114 2.25822657 0 0 Z " fill="#A0CE45" transform="translate(624,474)"/>
<path d="M0 0 C0.99 0.33 1.98 0.66 3 1 C2.67 2.98 2.34 4.96 2 7 C-5.425 8.485 -5.425 8.485 -13 10 C-10.11137786 7.11137786 -7.73997168 4.93943923 -4.4375 2.6875 C-3.67308594 2.15511719 -2.90867187 1.62273438 -2.12109375 1.07421875 C-1.42113281 0.71972656 -0.72117187 0.36523438 0 0 Z " fill="#0F5141" transform="translate(415,651)"/>
<path d="M0 0 C0.99 0.99 1.98 1.98 3 3 C2.38125 3.598125 1.7625 4.19625 1.125 4.8125 C-1.13676954 7.00811144 -1.13676954 7.00811144 -3 10 C-3.66 10 -4.32 10 -5 10 C-5.226875 10.5775 -5.45375 11.155 -5.6875 11.75 C-7.33038023 14.5663661 -9.39533227 16.08077114 -12 18 C-12.66 17.67 -13.32 17.34 -14 17 C-13.40832031 16.35933594 -12.81664062 15.71867187 -12.20703125 15.05859375 C-7.79006952 10.22371395 -3.66053443 5.43176077 0 0 Z " fill="#138A50" transform="translate(581,472)"/>
<path d="M0 0 C0.66 0.33 1.32 0.66 2 1 C-2.35791531 3.67319855 -6.81383296 6.13709728 -11.3125 8.5625 C-12.03373047 8.96146484 -12.75496094 9.36042969 -13.49804688 9.77148438 C-18.27940652 12.34012512 -22.68390536 13.88872598 -28 15 C-28 14.34 -28 13.68 -28 13 C-26.81664062 12.48050781 -25.63328125 11.96101562 -24.4140625 11.42578125 C-22.81747942 10.72187316 -21.22114102 10.01740992 -19.625 9.3125 C-18.80386719 8.950354 -17.98273438 8.58820801 -17.13671875 8.21508789 C-11.90619194 5.89264723 -6.78095024 3.44867609 -1.75 0.71484375 C-1.1725 0.47894531 -0.595 0.24304688 0 0 Z " fill="#4EAE42" transform="translate(496,637)"/>
<path d="M0 0 C0.33 0 0.66 0 1 0 C1 5.94 1 11.88 1 18 C0.67 18 0.34 18 0 18 C-0.33 15.36 -0.66 12.72 -1 10 C-2.32 13.96 -3.64 17.92 -5 22 C-5.66 21.67 -6.32 21.34 -7 21 C-6.28859578 18.62865259 -5.57685713 16.25741398 -4.86328125 13.88671875 C-4.29147143 11.9746488 -3.72627266 10.06058833 -3.16796875 8.14453125 C-2.90628906 7.25121094 -2.64460937 6.35789062 -2.375 5.4375 C-2.13523437 4.61121094 -1.89546875 3.78492188 -1.6484375 2.93359375 C-1 1 -1 1 0 0 Z " fill="#1E965F" transform="translate(630,377)"/>
<path d="M0 0 C-0.99 0.495 -0.99 0.495 -2 1 C5.59 1.33 13.18 1.66 21 2 C21 2.33 21 2.66 21 3 C10.11 3 -0.78 3 -12 3 C-8.61613364 -0.38386636 -4.56431325 -1.75550509 0 0 Z " fill="#439F43" transform="translate(443,662)"/>
<path d="M0 0 C0.66 0 1.32 0 2 0 C2.27573092 2.10094974 2.51978976 4.20607635 2.75 6.3125 C2.88921875 7.48425781 3.0284375 8.65601563 3.171875 9.86328125 C3.11515625 10.89839844 3.0584375 11.93351562 3 13 C1.68 13.99 0.36 14.98 -1 16 C-0.67 10.72 -0.34 5.44 0 0 Z " fill="#AFD35F" transform="translate(637,404)"/>
<path d="M0 0 C0.66 0.33 1.32 0.66 2 1 C-2.67443424 8.16491149 -2.67443424 8.16491149 -7 10 C-9.06940928 11.59421159 -11.02168598 13.29145608 -13 15 C-11.38989473 10.92623969 -8.46177729 8.23492931 -5.375 5.25 C-4.859375 4.74339844 -4.34375 4.23679687 -3.8125 3.71484375 C-2.54616661 2.47196098 -1.2736856 1.23534724 0 0 Z " fill="#F0F4E2" transform="translate(557,446)"/>
<path d="M0 0 C-1.65167557 3.5786304 -3.78286492 6.74820188 -6 10 C-6.66 8.68 -7.32 7.36 -8 6 C-3.375 0 -3.375 0 0 0 Z " fill="#89BF47" transform="translate(600,588)"/>
<path d="M0 0 C1 3 1 3 -0.125 5.375 C-2.17042131 8.23858983 -4.44693946 10.58494274 -7 13 C-7.66 12.67 -8.32 12.34 -9 12 C-6.03 8.04 -3.06 4.08 0 0 Z " fill="#8AC646" transform="translate(583,559)"/>
<path d="M0 0 C3.7910119 1.44950455 7.3874638 3.15172566 11 5 C7.44757118 6.18414294 6.30169438 5.69535532 2.8125 4.5625 C1.91144531 4.27503906 1.01039063 3.98757813 0.08203125 3.69140625 C-0.60503906 3.46324219 -1.29210937 3.23507812 -2 3 C-1.34 2.67 -0.68 2.34 0 2 C0 1.34 0 0.68 0 0 Z " fill="#B7CEC6" transform="translate(462,513)"/>
<path d="M0 0 C1.9375 0.6875 1.9375 0.6875 2.9375 2.6875 C-0.6925 3.3475 -4.3225 4.0075 -8.0625 4.6875 C-3.07528772 -0.46595269 -3.07528772 -0.46595269 0 0 Z " fill="#195743" transform="translate(410.0625,656.3125)"/>
<path d="M0 0 C0.66 0.33 1.32 0.66 2 1 C0.02 4.96 -1.96 8.92 -4 13 C-5 9 -5 9 -4.00390625 6.640625 C-3.52824219 5.85171875 -3.05257812 5.0628125 -2.5625 4.25 C-2.08941406 3.45078125 -1.61632812 2.6515625 -1.12890625 1.828125 C-0.75636719 1.22484375 -0.38382813 0.6215625 0 0 Z " fill="#268357" transform="translate(599,505)"/>
<path d="M0 0 C0.66 0.33 1.32 0.66 2 1 C0.50902342 4.7952131 -1.75700849 6.61042731 -5 9 C-5.66 8.67 -6.32 8.34 -7 8 C-4.69 5.36 -2.38 2.72 0 0 Z " fill="#1C8D57" transform="translate(574,481)"/>
<path d="M0 0 C0 3 0 3 -1.53125 4.60546875 C-2.1809375 5.12753906 -2.830625 5.64960937 -3.5 6.1875 C-4.1496875 6.71730469 -4.799375 7.24710938 -5.46875 7.79296875 C-5.9740625 8.19128906 -6.479375 8.58960938 -7 9 C-7.33 8.01 -7.66 7.02 -8 6 C-5.36 4.02 -2.72 2.04 0 0 Z " fill="#67B747" transform="translate(533,612)"/>
<path d="M0 0 C0.33 0.66 0.66 1.32 1 2 C-0.4562545 2.67119549 -1.91507867 3.33681807 -3.375 4 C-4.59316406 4.556875 -4.59316406 4.556875 -5.8359375 5.125 C-8 6 -8 6 -10 6 C-10 5.34 -10 4.68 -10 4 C-6.7 2.68 -3.4 1.36 0 0 Z " fill="#56AF4C" transform="translate(478,646)"/>
<path d="M0 0 C0.33 0 0.66 0 1 0 C0.88610125 1.79240663 0.75852313 3.58394835 0.625 5.375 C0.52058594 6.87160156 0.52058594 6.87160156 0.4140625 8.3984375 C0 11 0 11 -2 13 C-3.18414294 9.44757118 -2.69535532 8.30169438 -1.5625 4.8125 C-1.27503906 3.91144531 -0.98757813 3.01039063 -0.69140625 2.08203125 C-0.46324219 1.39496094 -0.23507812 0.70789063 0 0 Z " fill="#A9D252" transform="translate(624,474)"/>
<path d="M0 0 C-1.1858237 3.37503669 -2.27573689 5.64722731 -5 8 C-5.75 6.25 -5.75 6.25 -6 4 C-2.77777778 0 -2.77777778 0 0 0 Z " fill="#93C34E" transform="translate(606,579)"/>
<path d="M0 0 C0.99 0.33 1.98 0.66 3 1 C0.525 4.465 0.525 4.465 -2 8 C-2.33 7.01 -2.66 6.02 -3 5 C-1.5625 2.3125 -1.5625 2.3125 0 0 Z " fill="#1C794D" transform="translate(577,541)"/>
<path d="M0 0 C0.99 0.33 1.98 0.66 3 1 C1.68 3.31 0.36 5.62 -1 8 C-1.33 8 -1.66 8 -2 8 C-2.125 5.125 -2.125 5.125 -2 2 C-1.34 1.34 -0.68 0.68 0 0 Z " fill="#19764B" transform="translate(589,522)"/>
</svg>
